# This file uses meters as units for non-parametric coordinates.

mtllib grouped_opqueShileld.mtl
g default
v -1086.985807 -16.979805 723.778333
v -1059.545774 -16.979805 723.778333
v -1086.985807 258.354315 723.778333
v -1059.545774 258.354315 723.778333
v -1086.985807 258.354315 485.357372
v -1059.545774 258.354315 485.357372
v -1086.985807 -16.979805 485.357372
v -1059.545774 -16.979805 485.357372
vt 0.226747 0.034887
vt 0.252450 0.032029
vt 0.226247 0.255943
vt 0.251144 0.256718
vt 0.027300 0.253830
vt 0.447338 0.255578
vt 0.028948 0.033026
vt 0.002451 0.030747
vt 0.231373 0.002248
vt 0.448461 0.035300
vt 0.001746 0.255519
vt 0.026188 0.001992
vt 0.229494 0.283325
vt 0.023695 0.283013
vn 0.000000 0.000000 1.000000
vn 0.000000 0.000000 1.000000
vn 0.000000 0.000000 1.000000
vn 0.000000 0.000000 1.000000
vn 0.000000 1.000000 0.000000
vn 0.000000 1.000000 0.000000
vn 0.000000 1.000000 0.000000
vn 0.000000 1.000000 0.000000
vn 0.000000 0.000000 -1.000000
vn 0.000000 0.000000 -1.000000
vn 0.000000 0.000000 -1.000000
vn 0.000000 0.000000 -1.000000
vn 0.000000 -1.000000 0.000000
vn 0.000000 -1.000000 0.000000
vn 0.000000 -1.000000 0.000000
vn 0.000000 -1.000000 0.000000
vn 1.000000 0.000000 0.000000
vn 1.000000 0.000000 0.000000
vn 1.000000 0.000000 0.000000
vn 1.000000 0.000000 0.000000
vn -1.000000 0.000000 0.000000
vn -1.000000 0.000000 0.000000
vn -1.000000 0.000000 0.000000
vn -1.000000 0.000000 0.000000
s off
g pCube76 group6
usemtl initialShadingGroup
f 1/1/1 2/2/2 4/4/3 3/3/4
f 3/3/5 4/13/6 6/14/7 5/5/8
f 5/5/9 6/11/10 8/8/11 7/7/12
f 7/7/13 8/12/14 2/9/15 1/1/16
f 2/2/17 8/10/18 6/6/19 4/4/20
f 7/7/21 1/1/22 3/3/23 5/5/24
g default
v -673.906932 -16.979805 624.965497
v -667.402096 -16.979805 651.623418
v -673.906932 258.354315 624.965497
v -667.402096 258.354315 651.623418
v -389.596092 258.354315 555.590618
v -383.091284 258.354315 582.248539
v -389.596092 -16.979805 555.590618
v -383.091284 -16.979805 582.248539
vt 0.653140 0.266210
vt 0.678843 0.263351
vt 0.652640 0.487265
vt 0.677537 0.488040
vt 0.453693 0.485153
vt 0.873731 0.486900
vt 0.455341 0.264349
vt 0.428845 0.262070
vt 0.657766 0.233571
vt 0.874855 0.266623
vt 0.428140 0.486842
vt 0.452582 0.233315
vt 0.655887 0.514648
vt 0.450088 0.514336
vn -0.971496 0.000000 0.237056
vn -0.971496 0.000000 0.237056
vn -0.971496 0.000000 0.237056
vn -0.971496 0.000000 0.237056
vn 0.000000 1.000000 0.000000
vn 0.000000 1.000000 0.000000
vn 0.000000 1.000000 0.000000
vn 0.000000 1.000000 0.000000
vn 0.971496 0.000000 -0.237055
vn 0.971496 0.000000 -0.237055
vn 0.971496 0.000000 -0.237055
vn 0.971496 0.000000 -0.237055
vn 0.000000 -1.000000 0.000000
vn 0.000000 -1.000000 0.000000
vn 0.000000 -1.000000 0.000000
vn 0.000000 -1.000000 0.000000
vn 0.237055 0.000000 0.971496
vn 0.237055 0.000000 0.971496
vn 0.237055 0.000000 0.971496
vn 0.237055 0.000000 0.971496
vn -0.237056 0.000000 -0.971496
vn -0.237056 0.000000 -0.971496
vn -0.237056 0.000000 -0.971496
vn -0.237056 0.000000 -0.971496
s off
g group6 pCube77
usemtl initialShadingGroup
f 9/15/25 10/16/26 12/18/27 11/17/28
f 11/17/29 12/27/30 14/28/31 13/19/32
f 13/19/33 14/25/34 16/22/35 15/21/36
f 15/21/37 16/26/38 10/23/39 9/15/40
f 10/16/41 16/24/42 14/20/43 12/18/44
f 15/21/45 9/15/46 11/17/47 13/19/48
g default
v 41.275263 -16.979805 -31.744465
v 67.569505 -16.979805 -23.897856
v 41.275263 258.354315 -31.744465
v 67.569505 258.354315 -23.897856
v 124.960622 258.354315 -312.176759
v 151.254863 258.354315 -304.330147
v 124.960622 -16.979805 -312.176759
v 151.254863 -16.979805 -304.330147
vt 0.226747 0.518247
vt 0.252450 0.515389
vt 0.226247 0.739303
vt 0.251144 0.740078
vt 0.027300 0.737190
vt 0.447338 0.738938
vt 0.028948 0.516387
vt 0.002451 0.514107
vt 0.231373 0.485608
vt 0.448461 0.518660
vt 0.001746 0.738879
vt 0.026188 0.485352
vt 0.229494 0.766685
vt 0.023695 0.766373
vn -0.285955 0.000000 0.958243
vn -0.285955 0.000000 0.958243
vn -0.285955 0.000000 0.958243
vn -0.285955 0.000000 0.958243
vn 0.000000 1.000000 0.000000
vn 0.000000 1.000000 0.000000
vn 0.000000 1.000000 0.000000
vn 0.000000 1.000000 0.000000
vn 0.285955 0.000000 -0.958243
vn 0.285955 0.000000 -0.958243
vn 0.285955 0.000000 -0.958243
vn 0.285955 0.000000 -0.958243
vn 0.000000 -1.000000 0.000000
vn 0.000000 -1.000000 0.000000
vn 0.000000 -1.000000 0.000000
vn 0.000000 -1.000000 0.000000
vn 0.958243 0.000000 0.285955
vn 0.958243 0.000000 0.285955
vn 0.958243 0.000000 0.285955
vn 0.958243 0.000000 0.285955
vn -0.958243 0.000000 -0.285955
vn -0.958243 0.000000 -0.285955
vn -0.958243 0.000000 -0.285955
vn -0.958243 0.000000 -0.285955
s off
g group6 pCube78
usemtl initialShadingGroup
f 17/29/49 18/30/50 20/32/51 19/31/52
f 19/31/53 20/41/54 22/42/55 21/33/56
f 21/33/57 22/39/58 24/36/59 23/35/60
f 23/35/61 24/40/62 18/37/63 17/29/64
f 18/30/65 24/38/66 22/34/67 20/32/68
f 23/35/69 17/29/70 19/31/71 21/33/72
g default
v 458.028286 -16.979805 -479.512840
v 470.439056 -16.979805 -455.039823
v 458.028286 258.354315 -479.512840
v 470.439056 258.354315 -455.039823
v 719.037116 258.354315 -611.875748
v 731.447886 258.354315 -587.402675
v 719.037116 -16.979805 -611.875748
v 731.447886 -16.979805 -587.402675
vt 0.653140 0.749570
vt 0.678843 0.746711
vt 0.652640 0.970625
vt 0.677537 0.971400
vt 0.453693 0.968513
vt 0.873731 0.970260
vt 0.455341 0.747709
vt 0.428845 0.745430
vt 0.657766 0.716931
vt 0.874855 0.749983
vt 0.428140 0.970202
vt 0.452582 0.716675
vt 0.655887 0.998008
vt 0.450088 0.997696
vn -0.891872 0.000000 0.452287
vn -0.891872 0.000000 0.452287
vn -0.891872 0.000000 0.452287
vn -0.891872 0.000000 0.452287
vn 0.000000 1.000000 0.000000
vn 0.000000 1.000000 0.000000
vn 0.000000 1.000000 0.000000
vn 0.000000 1.000000 0.000000
vn 0.891873 0.000000 -0.452286
vn 0.891873 0.000000 -0.452286
vn 0.891873 0.000000 -0.452286
vn 0.891873 0.000000 -0.452286
vn 0.000000 -1.000000 0.000000
vn 0.000000 -1.000000 0.000000
vn 0.000000 -1.000000 0.000000
vn 0.000000 -1.000000 0.000000
vn 0.452287 0.000000 0.891873
vn 0.452287 0.000000 0.891873
vn 0.452287 0.000000 0.891873
vn 0.452287 0.000000 0.891873
vn -0.452287 0.000000 -0.891873
vn -0.452287 0.000000 -0.891873
vn -0.452287 0.000000 -0.891873
vn -0.452287 0.000000 -0.891873
s off
g group6 pCube79
usemtl initialShadingGroup
f 25/43/73 26/44/74 28/46/75 27/45/76
f 27/45/77 28/55/78 30/56/79 29/47/80
f 29/47/81 30/53/82 32/50/83 31/49/84
f 31/49/85 32/54/86 26/51/87 25/43/88
f 26/44/89 32/52/90 30/48/91 28/46/92
f 31/49/93 25/43/94 27/45/95 29/47/96
