# This file uses meters as units for non-parametric coordinates.

mtllib roomWalls01.mtl
g default
v -2227.172740 2.255097 2407.238326
v 2217.363862 2.255097 2407.238326
v -2227.172740 1273.391659 2407.238326
v 2217.363862 1273.391659 2407.238326
v -2227.172740 1273.391659 -2407.238326
v 2217.363862 1273.391659 -2407.238326
v -2227.172740 2.255097 -2407.238326
v 2217.363862 2.255097 -2407.238326
v 2217.363862 1273.391659 -186.380076
v 2217.363862 2.255097 -186.380076
v -2227.172740 2.255097 -186.380076
v 2217.363862 1273.391659 186.380381
v 2217.363862 2.255097 186.380381
v -2227.172740 2.255097 186.380381
v -2227.172740 405.123203 -2407.238326
v 2217.363862 405.123203 -2407.238326
v 2217.363862 405.123203 -186.380076
v 2217.363862 405.123203 186.380381
v 2217.363862 405.123203 2407.238326
v -2227.172740 405.123203 2407.238326
vt 0.862971 0.082217
vt 0.976946 0.080918
vt 0.983667 0.664249
vt 0.869692 0.665576
vt 0.018071 0.675384
vt 0.011341 0.092030
vt 0.125299 0.090714
vt 0.132020 0.674078
vt 0.525324 0.669537
vt 0.518599 0.086186
vt 0.810094 0.082827
vt 0.816815 0.666185
vt 0.525948 0.722425
vt 0.817424 0.719069
vt 0.818735 0.833027
vt 0.527254 0.836385
vt 0.185500 0.726351
vt 0.476989 0.722991
vt 0.478303 0.836943
vt 0.186826 0.840302
vt 0.184893 0.673471
vt 0.178176 0.090104
vt 0.469673 0.086750
vt 0.476390 0.670100
vn 0.000000 0.000000 -1.000000
vn 0.000000 0.000000 -1.000000
vn 0.000000 0.000000 -1.000000
vn 0.000000 0.000000 -1.000000
vn 0.000000 0.000000 1.000000
vn 0.000000 0.000000 1.000000
vn 0.000000 0.000000 1.000000
vn 0.000000 0.000000 1.000000
vn 0.000000 1.000000 0.000000
vn 0.000000 1.000000 0.000000
vn 0.000000 1.000000 0.000000
vn 0.000000 1.000000 0.000000
vn -1.000000 0.000000 0.000000
vn -1.000000 0.000000 0.000000
vn -1.000000 0.000000 0.000000
vn -1.000000 0.000000 0.000000
vn -1.000000 0.000000 0.000000
vn -1.000000 0.000000 0.000000
vn -1.000000 0.000000 0.000000
vn -1.000000 0.000000 0.000000
vn 0.000000 1.000000 0.000000
vn 0.000000 1.000000 0.000000
vn 0.000000 1.000000 0.000000
vn 0.000000 1.000000 0.000000
vn 0.000000 0.000000 1.000000
vn 0.000000 0.000000 1.000000
vn -1.000000 0.000000 0.000000
vn -1.000000 0.000000 0.000000
vn -1.000000 0.000000 0.000000
vn -1.000000 0.000000 0.000000
vn 0.000000 0.000000 -1.000000
vn 0.000000 0.000000 -1.000000
s 1
g room group6
usemtl initialShadingGroup
f 20/1/1 3/2/2 4/3/3 19/4/4
s 2
f 6/5/5 5/6/6 15/7/7 16/8/8
s 3
f 13/9/9 14/10/10 1/11/11 2/12/12
s 4
f 18/13/13 19/14/14 4/15/15 12/16/16
f 16/17/17 17/18/18 9/19/19 6/20/20
s 3
f 8/21/21 7/22/22 11/23/23 10/24/24
s 4
f 17/18/18 18/13/13 12/16/16 9/19/19
s 3
f 10/24/24 11/23/23 14/10/10 13/9/9
s 2
f 16/8/8 15/7/7 7/22/25 8/21/26
s 4
f 8/21/27 10/24/28 17/18/18 16/17/17
f 13/9/29 2/12/30 19/14/14 18/13/13
s 1
f 1/11/31 20/1/1 19/4/4 2/12/32
