# This file uses meters as units for non-parametric coordinates.

mtllib smallPillar.mtl
g smallPillar:default1
v -29.959961 1278.080078 29.959625
v -0.000183 1278.080078 29.959625
v -0.000183 1249.585205 29.959625
v -29.959961 1249.585205 29.959625
v -29.959961 1249.585205 -29.959564
v -0.000183 1249.585205 -29.959564
v -0.000183 1278.080078 -29.959564
v -29.959961 1278.080078 -29.959564
v -29.959961 1278.080078 0.000061
v -0.000183 1278.080078 0.000061
v 29.959412 1278.080078 29.959625
v 29.959412 1278.080078 0.000061
v 29.959412 1249.585205 0.000061
v 29.959412 1249.585205 29.959625
v -29.959961 1249.585205 0.000061
v 29.959412 1278.080078 -29.959564
v 29.959412 1249.585205 -29.959564
v -0.000183 1249.585205 27.301788
v -19.242004 1249.585205 19.242035
v -27.301880 1249.585205 0.000061
v -19.242004 1249.585205 -19.241974
v -0.000061 1249.585205 -27.301788
v 19.242004 1249.585205 19.242035
v 27.301636 1249.585205 0.000061
v 19.242004 1249.585205 -19.241974
v -0.000183 1249.585205 19.969788
v -14.074646 1249.585205 14.074432
v -19.969849 1249.585205 -0.000031
v -14.074646 1249.585205 -14.074615
v -0.000061 1249.585205 -19.969666
v 14.074280 1249.585205 14.074432
v 19.969849 1249.585205 0.000183
v 14.074402 1249.585205 -14.074066
v -29.959961 0.000000 29.959625
v 29.959412 0.000000 29.959625
v -29.959961 27.237869 29.959625
v 29.959412 27.237869 29.959625
v -29.959961 27.237869 -29.959564
v 29.959412 27.237869 -29.959564
v -29.959961 0.000000 -29.959564
v 29.959412 0.000000 -29.959564
v -29.959961 27.237869 0.000061
v -29.959961 0.000000 0.000061
v 29.959412 0.000000 0.000061
v 29.959412 27.237869 0.000061
v -0.000183 27.237869 29.959625
v -0.000183 27.237869 -29.959564
v -0.000183 0.000000 -29.959564
v -0.000183 0.000000 0.000061
v -0.000183 0.000000 29.959625
v -19.242004 27.237869 19.242035
v -0.000183 27.237869 27.301788
v -27.301880 27.237869 0.000061
v -0.000061 27.237869 -27.301788
v -19.242004 27.237869 -19.241974
v 19.242004 27.237869 19.242035
v 27.301636 27.237869 0.000061
v 19.242004 27.237869 -19.241974
v -14.074646 27.237869 14.074432
v -0.000183 27.237869 19.969788
v -19.969849 27.237869 0.000061
v -0.000061 27.237869 -19.969788
v -14.074646 27.237869 -14.074493
v 14.074280 27.237869 14.074432
v 19.969849 27.237869 0.000061
v 14.074402 27.237869 -14.074493
v -21.236145 638.411499 -21.236084
v -0.000061 638.411499 -30.130859
v 21.235840 638.411499 -21.235748
v 30.131042 638.411499 0.000183
v 21.235718 638.411499 21.235870
v -0.000244 638.411499 30.130859
v -21.236145 638.411499 21.235870
v -30.131042 638.411499 -0.000031
v -16.128967 1091.391113 -16.128937
v -22.884644 1091.391113 -0.000031
v -16.128967 1091.391113 16.128784
v -0.000183 1091.391113 22.884552
v 16.128662 1091.391113 16.128784
v 22.884644 1091.391113 0.000183
v 16.128662 1091.391113 -16.128418
v -0.000061 1091.391113 -22.884430
v -0.000061 118.990417 -21.660339
v 15.265930 118.990471 -15.265991
v 21.660461 118.990417 0.000061
v 15.265808 118.990471 15.265900
v -0.000183 118.990417 21.660370
v -15.266113 118.990471 15.265900
v -21.660461 118.990417 0.000061
v -15.266113 118.990471 -15.265991
v -29.373291 394.794922 -0.000031
v -20.702026 394.794952 -20.701996
v -0.000061 394.794922 -29.373138
v 20.701721 394.794952 -20.701721
v 29.373291 394.794922 0.000061
v 20.701721 394.794952 20.701843
v -0.000244 394.794922 29.373199
v -20.702026 394.794952 20.701843
v -28.535583 906.109375 -0.000031
v -20.111511 906.109375 -20.111633
v -0.000061 906.109375 -28.535278
v 20.111328 906.109375 -20.111145
v 28.535461 906.109375 0.000183
v 20.111328 906.109375 20.111328
v -0.000183 906.109375 28.535370
v -20.111511 906.109375 20.111328
vt 0.599764 0.160950
vt 0.510735 0.160248
vt 0.693451 0.071447
vt 0.693557 0.160812
vt 0.599552 0.437919
vt 0.599556 0.348577
vt 0.693509 0.348604
vt 0.693470 0.437939
vt 0.599638 0.254639
vt 0.693539 0.254682
vt 0.787474 0.160762
vt 0.787441 0.071361
vt 0.876770 0.254651
vt 0.787460 0.254679
vt 0.510274 0.254369
vt 0.876822 0.348566
vt 0.787463 0.348624
vt 0.476880 0.193762
vt 0.693437 0.063110
vt 0.501923 0.254345
vt 0.693467 0.446270
vt 0.633149 0.471520
vt 0.753789 0.037749
vt 0.885101 0.254647
vt 0.910391 0.314936
vt 0.649228 0.021710
vt 0.693399 0.040107
vt 0.478877 0.254279
vt 0.693459 0.469248
vt 0.649344 0.487718
vt 0.737551 0.021542
vt 0.908071 0.254639
vt 0.926569 0.298728
vt 0.780448 0.851164
vt 0.779193 0.756573
vt 0.865188 0.755429
vt 0.866448 0.850020
vt 0.592407 0.939660
vt 0.504025 0.760212
vt 0.590020 0.759079
vt 0.591270 0.853667
vt 0.685858 0.852415
vt 0.684607 0.757827
vt 0.777937 0.661988
vt 0.683354 0.663243
vt 0.682214 0.577254
vt 0.776796 0.576000
vt 0.686994 0.938411
vt 0.172348 0.980520
vt 0.214712 0.980520
vt 0.128226 0.980520
vt 0.588772 0.664495
vt 0.502780 0.665626
vt 0.873580 0.755317
vt 0.899836 0.815729
vt 0.687105 0.946803
vt 0.626691 0.973051
vt 0.495634 0.760322
vt 0.742512 0.542614
vt 0.682103 0.568864
vt 0.469389 0.699907
vt 0.896728 0.755009
vt 0.915934 0.799197
vt 0.687410 0.969951
vt 0.643221 0.989149
vt 0.472486 0.760626
vt 0.725982 0.526516
vt 0.681796 0.545718
vt 0.453290 0.716436
vt 0.031270 0.980520
vt 0.081102 0.980520
vt 0.257076 0.980520
vt 0.301198 0.980520
vt 0.172348 0.019480
vt 0.214712 0.019480
vt 0.214712 0.091618
vt 0.172091 0.091618
vt 0.128227 0.019480
vt 0.127820 0.091618
vt 0.031270 0.019480
vt 0.081103 0.019480
vt 0.080774 0.091618
vt 0.031270 0.091618
vt 0.257076 0.019480
vt 0.257333 0.091618
vt 0.301198 0.019480
vt 0.301605 0.091618
vt 0.348323 0.019480
vt 0.348651 0.091618
vt 0.031270 0.856144
vt 0.080568 0.856144
vt 0.301862 0.856144
vt 0.257497 0.856144
vt 0.214712 0.856144
vt 0.171927 0.856144
vt 0.127562 0.856144
vt 0.079706 0.500000
vt 0.126466 0.500000
vt 0.126660 0.710471
vt 0.079856 0.710471
vt 0.171218 0.500000
vt 0.171345 0.710471
vt 0.214712 0.500000
vt 0.214712 0.710471
vt 0.258206 0.500000
vt 0.258080 0.710471
vt 0.302958 0.500000
vt 0.302765 0.710471
vt 0.349568 0.710471
vt 0.031270 0.500000
vt 0.031270 0.710471
vt 0.031270 0.308463
vt 0.349650 0.308463
vt 0.302869 0.308463
vt 0.258148 0.308463
vt 0.214712 0.308463
vt 0.171277 0.308463
vt 0.126556 0.308463
vt 0.079775 0.308463
vt 0.753759 0.471575
vt 0.737547 0.487754
vt 0.910348 0.194346
vt 0.926539 0.210536
vt 0.476518 0.314784
vt 0.460284 0.298536
vt 0.633062 0.037950
vt 0.460551 0.209934
vt 0.787398 0.438002
vt 0.876768 0.160762
vt 0.510138 0.348464
vt 0.599539 0.071626
vt 0.621020 0.544226
vt 0.637117 0.527696
vt 0.898216 0.694227
vt 0.914748 0.710325
vt 0.470987 0.821410
vt 0.454457 0.805309
vt 0.748192 0.971449
vt 0.732091 0.987978
vt 0.587634 0.578507
vt 0.863928 0.660843
vt 0.505273 0.854803
vt 0.781584 0.937163
vt 0.398155 0.980520
vt 0.398155 0.019480
vt 0.398155 0.856144
vt 0.348322 0.980520
vt 0.398155 0.500000
vt 0.398155 0.710471
vt 0.398155 0.091618
vt 0.398155 0.308463
vt 0.349719 0.500000
vt 0.348857 0.856144
vn 0.000000 0.724597 0.689173
vn 0.000000 0.000000 1.000000
vn 0.000000 0.000000 1.000000
vn 0.000000 0.724598 0.689172
vn 0.000000 0.000000 -1.000000
vn 0.000000 0.000000 -1.000000
vn 0.000000 0.000000 -1.000000
vn 0.000000 0.000000 -1.000000
vn 0.000000 1.000000 0.000000
vn 0.000000 0.724597 0.689173
vn 0.000000 0.724598 0.689172
vn 0.000000 1.000000 0.000000
vn 1.000000 0.000000 0.000000
vn 1.000000 0.000000 0.000000
vn 1.000000 0.000000 0.000000
vn 1.000000 0.000000 0.000000
vn -1.000000 0.000000 0.000000
vn -1.000000 0.000000 0.000000
vn -1.000000 0.000000 0.000000
vn -1.000000 0.000000 0.000000
vn -1.000000 0.000000 0.000000
vn -1.000000 0.000000 0.000000
vn -1.000000 0.000000 0.000000
vn -1.000000 0.000000 0.000000
vn 0.000000 1.000000 0.000000
vn 0.000000 1.000000 0.000000
vn 0.000000 1.000000 0.000000
vn 0.000000 1.000000 0.000000
vn 1.000000 0.000000 0.000000
vn 1.000000 0.000000 0.000000
vn 1.000000 0.000000 0.000000
vn 1.000000 0.000000 0.000000
vn 0.000000 0.000000 -1.000000
vn 0.000000 0.000000 -1.000000
vn 0.000000 0.000000 -1.000000
vn 0.000000 0.000000 -1.000000
vn 0.000000 1.000000 0.000000
vn 0.000000 1.000000 0.000000
vn 0.000000 1.000000 0.000000
vn 0.000000 1.000000 0.000000
vn 0.000000 0.724598 0.689172
vn 0.000000 0.724598 0.689172
vn 0.000000 1.000000 0.000000
vn 0.000000 1.000000 0.000000
vn 0.000000 0.000000 1.000000
vn 0.000000 0.000000 1.000000
vn 0.000000 0.724598 0.689172
vn 0.000000 0.724598 0.689172
vn 0.000000 -1.000000 -0.000001
vn 0.000000 -1.000000 -0.000002
vn 0.000000 -1.000000 -0.000001
vn 0.000000 -1.000000 0.000000
vn 0.000000 -1.000000 0.000000
vn 0.000000 -1.000000 0.000000
vn 0.000000 -1.000000 -0.000002
vn 0.000000 -1.000000 -0.000001
vn 0.000000 -1.000000 0.000000
vn 0.000000 -1.000000 0.000000
vn 0.000000 -1.000000 0.000001
vn 0.000000 -1.000000 0.000001
vn 0.000000 -1.000000 0.000001
vn 0.000000 -1.000000 0.000001
vn 0.000000 -1.000000 0.000000
vn 0.000000 -1.000000 0.000000
vn 0.000000 -1.000000 0.000000
vn 0.000000 -1.000000 -0.000001
vn 0.000000 -1.000000 0.000000
vn 0.000000 -1.000000 -0.000001
vn 0.000000 -1.000000 -0.000001
vn 0.000000 -1.000000 0.000000
vn 0.000000 -1.000000 0.000000
vn 0.000000 -1.000000 0.000001
vn 0.000000 -1.000000 0.000001
vn 0.000000 -1.000000 0.000000
vn 0.000000 -1.000000 0.000001
vn 0.000000 -1.000000 0.000001
vn 0.000000 -1.000000 0.000001
vn 0.000000 -1.000000 0.000001
vn 0.000000 -1.000000 0.000000
vn 0.000000 -1.000000 0.000000
vn 0.000000 -1.000000 -0.000002
vn -0.706396 -0.044878 0.706393
vn 0.000000 -0.045276 0.998975
vn 0.000000 -1.000000 -0.000001
vn 0.000000 -1.000000 0.000000
vn -0.998975 -0.045274 0.000000
vn -0.706396 -0.044878 0.706393
vn 0.000000 -1.000000 -0.000002
vn 0.000000 -1.000000 0.000000
vn 0.000018 -0.045276 -0.998975
vn -0.706391 -0.044878 -0.706397
vn 0.000000 -1.000000 0.000001
vn 0.000000 -1.000000 0.000001
vn -0.706391 -0.044878 -0.706397
vn -0.998975 -0.045274 0.000000
vn 0.000000 -1.000000 0.000000
vn 0.000000 -1.000000 -0.000001
vn 0.000000 -0.045276 0.998975
vn 0.706387 -0.044878 0.706402
vn 0.000000 -1.000000 0.000000
vn 0.000000 -1.000000 0.000000
vn 0.706387 -0.044878 0.706402
vn 0.998975 -0.045276 0.000002
vn 0.000000 -1.000000 0.000000
vn 0.000000 -1.000000 0.000000
vn 0.998975 -0.045276 0.000002
vn 0.706393 -0.044879 -0.706396
vn 0.000000 -1.000000 0.000001
vn 0.000000 -1.000000 0.000001
vn 0.706393 -0.044879 -0.706396
vn 0.000018 -0.045276 -0.998975
vn 0.000000 -1.000000 0.000000
vn 0.000000 -0.739916 0.672699
vn 0.000000 -0.739917 0.672699
vn 0.000000 0.000000 1.000000
vn 0.000000 0.000000 1.000000
vn 0.000000 0.000000 -1.000000
vn 0.000000 0.000000 -1.000000
vn 0.000000 0.000000 -1.000000
vn 0.000000 0.000000 -1.000000
vn 0.000000 -1.000000 0.000000
vn 0.000000 -1.000000 0.000000
vn 0.000000 -0.739917 0.672699
vn 0.000000 -0.739916 0.672699
vn 1.000000 0.000000 0.000000
vn 1.000000 0.000000 0.000000
vn 1.000000 0.000000 0.000000
vn 1.000000 0.000000 0.000000
vn -1.000000 0.000000 0.000000
vn -1.000000 0.000000 0.000000
vn -1.000000 0.000000 0.000000
vn -1.000000 0.000000 0.000000
vn -1.000000 0.000000 0.000000
vn -1.000000 0.000000 0.000000
vn -1.000000 0.000000 0.000000
vn -1.000000 0.000000 0.000000
vn 0.000000 -1.000000 0.000000
vn 0.000000 -1.000000 0.000000
vn 0.000000 -1.000000 0.000000
vn 0.000000 -1.000000 0.000000
vn 1.000000 0.000000 0.000000
vn 1.000000 0.000000 0.000000
vn 1.000000 0.000000 0.000000
vn 1.000000 0.000000 0.000000
vn 0.000000 0.000000 -1.000000
vn 0.000000 0.000000 -1.000000
vn 0.000000 0.000000 -1.000000
vn 0.000000 0.000000 -1.000000
vn 0.000000 -1.000000 0.000000
vn 0.000000 -1.000000 0.000000
vn 0.000000 -1.000000 0.000000
vn 0.000000 -1.000000 0.000000
vn 0.000000 -0.739917 0.672699
vn 0.000000 -1.000000 0.000000
vn 0.000000 -1.000000 0.000000
vn 0.000000 -0.739917 0.672698
vn 0.000000 0.000000 1.000000
vn 0.000000 -0.739917 0.672699
vn 0.000000 -0.739917 0.672698
vn 0.000000 0.000000 1.000000
vn 0.000000 1.000000 0.000001
vn 0.000000 1.000000 0.000002
vn 0.000000 1.000000 0.000000
vn 0.000000 1.000000 -0.000001
vn 0.000000 1.000000 0.000001
vn 0.000000 1.000000 0.000001
vn 0.000000 1.000000 -0.000001
vn 0.000000 1.000000 0.000000
vn 0.000000 1.000000 -0.000001
vn 0.000000 1.000000 0.000000
vn 0.000000 1.000000 0.000000
vn 0.000000 1.000000 0.000000
vn 0.000000 1.000000 0.000000
vn 0.000000 1.000000 0.000001
vn 0.000000 1.000000 0.000000
vn 0.000000 1.000000 0.000000
vn 0.000000 1.000000 0.000002
vn 0.000000 1.000000 0.000002
vn 0.000000 1.000000 0.000001
vn 0.000000 1.000000 0.000000
vn 0.000000 1.000000 0.000002
vn 0.000000 1.000000 0.000000
vn 0.000000 1.000000 0.000000
vn 0.000000 1.000000 0.000001
vn 0.000000 1.000000 0.000000
vn 0.000000 1.000000 -0.000001
vn 0.000000 1.000000 -0.000001
vn 0.000000 1.000000 0.000000
vn 0.000000 1.000000 -0.000001
vn 0.000000 1.000000 -0.000001
vn 0.000000 1.000000 0.000000
vn 0.000000 1.000000 -0.000001
vn 0.000000 1.000000 -0.000001
vn 0.000000 1.000000 0.000000
vn 0.000000 0.094295 0.995544
vn -0.704007 0.093549 0.704005
vn 0.000000 1.000000 0.000000
vn 0.000000 1.000000 -0.000001
vn -0.704007 0.093549 0.704005
vn -0.995544 0.094293 0.000000
vn 0.000000 1.000000 0.000000
vn 0.000000 1.000000 0.000000
vn -0.704006 0.093550 -0.704006
vn 0.000000 0.094293 -0.995545
vn 0.000000 1.000000 0.000000
vn 0.000000 1.000000 0.000000
vn -0.995544 0.094293 0.000000
vn -0.704006 0.093550 -0.704006
vn 0.000000 1.000000 0.000000
vn 0.000000 1.000000 0.000001
vn 0.704001 0.093550 0.704011
vn 0.000000 0.094295 0.995544
vn 0.000000 1.000000 0.000001
vn 0.000000 1.000000 0.000000
vn 0.995544 0.094294 0.000003
vn 0.704001 0.093550 0.704011
vn 0.000000 1.000000 0.000000
vn 0.000000 1.000000 -0.000001
vn 0.704004 0.093549 -0.704008
vn 0.995544 0.094294 0.000003
vn 0.000000 1.000000 -0.000001
vn 0.000000 1.000000 0.000000
vn 0.000000 0.094293 -0.995545
vn 0.704004 0.093549 -0.704008
vn -0.704007 0.093549 0.704005
vn 0.000000 0.094295 0.995544
vn 0.000000 -0.025938 0.999664
vn -0.706872 -0.025853 0.706869
vn -0.995544 0.094293 0.000000
vn -0.704007 0.093549 0.704005
vn -0.706872 -0.025853 0.706869
vn -0.999664 -0.025938 0.000000
vn 0.000000 0.094293 -0.995545
vn -0.704006 0.093550 -0.704006
vn -0.706869 -0.025853 -0.706871
vn 0.000003 -0.025938 -0.999664
vn -0.704006 0.093550 -0.704006
vn -0.995544 0.094293 0.000000
vn -0.999664 -0.025938 0.000000
vn -0.706869 -0.025853 -0.706871
vn 0.000000 0.094295 0.995544
vn 0.704001 0.093550 0.704011
vn 0.706865 -0.025853 0.706876
vn 0.000000 -0.025938 0.999664
vn 0.704001 0.093550 0.704011
vn 0.995544 0.094294 0.000003
vn 0.999664 -0.025938 0.000002
vn 0.706865 -0.025853 0.706876
vn 0.995544 0.094294 0.000003
vn 0.704004 0.093549 -0.704008
vn 0.706869 -0.025852 -0.706872
vn 0.999664 -0.025938 0.000002
vn 0.704004 0.093549 -0.704008
vn 0.000000 0.094293 -0.995545
vn 0.000003 -0.025938 -0.999664
vn 0.706869 -0.025852 -0.706872
vn 0.000015 0.025506 -0.999675
vn -0.706875 0.025422 -0.706881
vn -0.706391 -0.044878 -0.706397
vn 0.000018 -0.045276 -0.998975
vn 0.706877 0.025422 -0.706879
vn 0.000015 0.025506 -0.999675
vn 0.000018 -0.045276 -0.998975
vn 0.706393 -0.044879 -0.706396
vn 0.999675 0.025506 0.000001
vn 0.706877 0.025422 -0.706879
vn 0.706393 -0.044879 -0.706396
vn 0.998975 -0.045276 0.000002
vn 0.706872 0.025422 0.706885
vn 0.999675 0.025506 0.000001
vn 0.998975 -0.045276 0.000002
vn 0.706387 -0.044878 0.706402
vn 0.000000 0.025506 0.999675
vn 0.706872 0.025422 0.706885
vn 0.706387 -0.044878 0.706402
vn 0.000000 -0.045276 0.998975
vn -0.706879 0.025422 0.706877
vn 0.000000 0.025506 0.999675
vn 0.000000 -0.045276 0.998975
vn -0.706396 -0.044878 0.706393
vn -0.999675 0.025506 0.000000
vn -0.706879 0.025422 0.706877
vn -0.706396 -0.044878 0.706393
vn -0.998975 -0.045274 0.000000
vn -0.706875 0.025422 -0.706881
vn -0.999675 0.025506 0.000000
vn -0.998975 -0.045274 0.000000
vn -0.706391 -0.044878 -0.706397
vn -0.707103 0.001600 -0.707109
vn -0.999999 0.001605 0.000000
vn -0.999885 0.015172 0.000000
vn -0.707023 0.015124 -0.707029
vn -0.999999 0.001605 0.000000
vn -0.707108 0.001600 0.707104
vn -0.707027 0.015123 0.707025
vn -0.999885 0.015172 0.000000
vn -0.707108 0.001600 0.707104
vn 0.000000 0.001605 0.999999
vn 0.000000 0.015172 0.999885
vn -0.707027 0.015123 0.707025
vn 0.000000 0.001605 0.999999
vn 0.707099 0.001600 0.707112
vn 0.707020 0.015123 0.707032
vn 0.000000 0.015172 0.999885
vn 0.707099 0.001600 0.707112
vn 0.999999 0.001605 0.000001
vn 0.999885 0.015172 0.000001
vn 0.707020 0.015123 0.707032
vn 0.999999 0.001605 0.000001
vn 0.707105 0.001600 -0.707107
vn 0.707025 0.015124 -0.707027
vn 0.999885 0.015172 0.000001
vn 0.707105 0.001600 -0.707107
vn 0.000009 0.001605 -0.999999
vn 0.000012 0.015172 -0.999885
vn 0.707025 0.015124 -0.707027
vn 0.000009 0.001605 -0.999999
vn -0.707103 0.001600 -0.707109
vn -0.707023 0.015124 -0.707029
vn 0.000012 0.015172 -0.999885
vn 0.706869 -0.025852 -0.706872
vn 0.000003 -0.025938 -0.999664
vn 0.000006 -0.015305 -0.999883
vn 0.707023 -0.015256 -0.707026
vn 0.999664 -0.025938 0.000002
vn 0.706869 -0.025852 -0.706872
vn 0.707023 -0.015256 -0.707026
vn 0.999883 -0.015305 0.000001
vn 0.706865 -0.025853 0.706876
vn 0.999664 -0.025938 0.000002
vn 0.999883 -0.015305 0.000001
vn 0.707018 -0.015256 0.707030
vn 0.000000 -0.025938 0.999664
vn 0.706865 -0.025853 0.706876
vn 0.707018 -0.015256 0.707030
vn 0.000000 -0.015305 0.999883
vn -0.706872 -0.025853 0.706869
vn 0.000000 -0.025938 0.999664
vn 0.000000 -0.015305 0.999883
vn -0.707027 -0.015256 0.707023
vn -0.707027 -0.015256 0.707023
vn -0.999883 -0.015305 0.000000
vn -0.999664 -0.025938 0.000000
vn -0.706872 -0.025853 0.706869
vn -0.706869 -0.025853 -0.706871
vn -0.999664 -0.025938 0.000000
vn -0.999883 -0.015305 0.000000
vn -0.707023 -0.015256 -0.707026
vn 0.000003 -0.025938 -0.999664
vn -0.706869 -0.025853 -0.706871
vn -0.707023 -0.015256 -0.707026
vn 0.000006 -0.015305 -0.999883
vn -0.707023 -0.015256 -0.707026
vn -0.999883 -0.015305 0.000000
vn -0.999999 0.001605 0.000000
vn -0.707103 0.001600 -0.707109
vn 0.000006 -0.015305 -0.999883
vn -0.707023 -0.015256 -0.707026
vn -0.707103 0.001600 -0.707109
vn 0.000009 0.001605 -0.999999
vn 0.707023 -0.015256 -0.707026
vn 0.000006 -0.015305 -0.999883
vn 0.000009 0.001605 -0.999999
vn 0.707105 0.001600 -0.707107
vn 0.999883 -0.015305 0.000001
vn 0.707023 -0.015256 -0.707026
vn 0.707105 0.001600 -0.707107
vn 0.999999 0.001605 0.000001
vn 0.707018 -0.015256 0.707030
vn 0.999883 -0.015305 0.000001
vn 0.999999 0.001605 0.000001
vn 0.707099 0.001600 0.707112
vn 0.000000 -0.015305 0.999883
vn 0.707018 -0.015256 0.707030
vn 0.707099 0.001600 0.707112
vn 0.000000 0.001605 0.999999
vn -0.707027 -0.015256 0.707023
vn 0.000000 -0.015305 0.999883
vn 0.000000 0.001605 0.999999
vn -0.707108 0.001600 0.707104
vn -0.999999 0.001605 0.000000
vn -0.999883 -0.015305 0.000000
vn -0.707027 -0.015256 0.707023
vn -0.707108 0.001600 0.707104
vn -0.707023 0.015124 -0.707029
vn -0.999885 0.015172 0.000000
vn -0.999675 0.025506 0.000000
vn -0.706875 0.025422 -0.706881
vn 0.000012 0.015172 -0.999885
vn -0.707023 0.015124 -0.707029
vn -0.706875 0.025422 -0.706881
vn 0.000015 0.025506 -0.999675
vn 0.707025 0.015124 -0.707027
vn 0.000012 0.015172 -0.999885
vn 0.000015 0.025506 -0.999675
vn 0.706877 0.025422 -0.706879
vn 0.999885 0.015172 0.000001
vn 0.707025 0.015124 -0.707027
vn 0.706877 0.025422 -0.706879
vn 0.999675 0.025506 0.000001
vn 0.707020 0.015123 0.707032
vn 0.999885 0.015172 0.000001
vn 0.999675 0.025506 0.000001
vn 0.706872 0.025422 0.706885
vn 0.000000 0.015172 0.999885
vn 0.707020 0.015123 0.707032
vn 0.706872 0.025422 0.706885
vn 0.000000 0.025506 0.999675
vn -0.707027 0.015123 0.707025
vn 0.000000 0.015172 0.999885
vn 0.000000 0.025506 0.999675
vn -0.706879 0.025422 0.706877
vn -0.999885 0.015172 0.000000
vn -0.707027 0.015123 0.707025
vn -0.706879 0.025422 0.706877
vn -0.999675 0.025506 0.000000
s off
g smallPillar:group6 smallPillar:polySurface134 smallPillar:polySurface1
usemtl smallPillar:baked_surfaceShader1SG_polySurface11SG
f 1/1/1 4/131/2 3/3/3 2/4/4
f 5/5/5 8/6/6 7/7/7 6/8/8
f 9/9/9 1/1/10 2/4/11 10/10/12
f 11/11/13 14/129/14 13/13/15 12/14/16
f 9/9/17 15/15/18 4/2/19 1/1/20
f 8/6/21 5/130/22 15/15/23 9/9/24
f 8/6/25 9/9/26 10/10/27 7/7/28
f 13/13/29 17/16/30 16/17/31 12/14/32
f 7/7/33 16/17/34 17/128/35 6/8/36
f 10/10/37 12/14/38 16/17/39 7/7/40
f 2/4/41 11/11/42 12/14/43 10/10/44
f 3/3/45 14/12/46 11/11/47 2/4/48
f 4/131/49 19/126/50 18/19/51 3/3/52
f 15/15/53 20/20/54 19/18/55 4/2/56
f 6/8/57 22/21/58 21/22/59 5/5/60
f 5/130/61 21/124/62 20/20/63 15/15/64
f 3/3/65 18/19/66 23/23/67 14/12/68
f 14/129/69 23/122/70 24/24/71 13/13/72
f 13/13/73 24/24/74 25/25/75 17/16/76
f 17/128/77 25/120/78 22/21/79 6/8/80
f 19/126/81 27/26/82 26/27/83 18/19/84
f 20/20/85 28/28/86 27/127/87 19/18/88
f 22/21/89 30/29/90 29/30/91 21/22/92
f 21/124/93 29/125/94 28/28/95 20/20/96
f 18/19/97 26/27/98 31/31/99 23/23/100
f 23/122/101 31/123/102 32/32/103 24/24/104
f 24/24/105 32/32/106 33/33/107 25/25/108
f 25/120/109 33/121/110 30/29/111 22/21/112
f 34/34/113 50/35/114 46/36/115 36/37/116
f 38/142/117 47/39/118 48/40/119 40/41/120
f 43/42/121 49/43/122 50/35/123 34/34/124
f 35/44/125 44/45/126 45/46/127 37/47/128
f 43/42/129 34/34/130 36/143/131 42/48/132
f 40/41/133 43/42/134 42/48/135 38/38/136
f 40/41/137 48/40/138 49/43/139 43/42/140
f 45/46/141 44/45/142 41/52/143 39/140/144
f 48/40/145 47/39/146 39/53/147 41/52/148
f 49/43/149 48/40/150 41/52/151 44/45/152
f 50/35/153 49/43/154 44/45/155 35/44/156
f 46/36/157 50/35/158 35/44/159 37/141/160
f 36/37/161 46/36/162 52/54/163 51/55/164
f 42/48/165 36/143/166 51/138/167 53/56/168
f 47/39/169 38/142/170 55/136/171 54/58/172
f 38/38/173 42/48/174 53/56/175 55/57/176
f 46/36/177 37/141/178 56/134/179 52/54/180
f 37/47/181 45/46/182 57/60/183 56/59/184
f 45/46/185 39/140/186 58/132/187 57/60/188
f 39/53/189 47/39/190 54/58/191 58/61/192
f 51/55/193 52/54/194 60/62/195 59/63/196
f 53/56/197 51/138/198 59/139/199 61/64/200
f 54/58/201 55/136/202 63/137/203 62/66/204
f 55/57/205 53/56/206 61/64/207 63/65/208
f 52/54/209 56/134/210 64/135/211 60/62/212
f 56/59/213 57/60/214 65/68/215 64/67/216
f 57/60/217 58/132/218 66/133/219 65/68/220
f 58/61/221 54/58/222 62/66/223 66/69/224
f 59/74/225 60/75/226 87/76/227 88/77/228
f 61/78/229 59/74/230 88/77/231 89/79/232
f 62/80/233 63/81/234 90/82/235 83/83/236
f 63/81/237 61/78/238 89/79/239 90/82/240
f 60/75/241 64/84/242 86/85/243 87/76/244
f 64/84/245 65/86/246 85/87/247 86/85/248
f 65/86/249 66/88/250 84/89/251 85/87/252
f 66/88/253 62/145/254 83/150/255 84/89/256
f 82/90/257 75/91/258 29/71/259 30/70/260
f 81/153/261 82/146/262 30/144/263 33/147/264
f 80/92/265 81/153/266 33/147/267 32/73/268
f 79/93/269 80/92/270 32/73/271 31/72/272
f 78/94/273 79/93/274 31/72/275 26/50/276
f 77/95/277 78/94/278 26/50/279 27/49/280
f 76/96/281 77/95/282 27/49/283 28/51/284
f 75/91/285 76/96/286 28/51/287 29/71/288
f 67/97/289 74/98/290 99/99/291 100/100/292
f 74/98/293 73/101/294 106/102/295 99/99/296
f 73/101/297 72/103/298 105/104/299 106/102/300
f 72/103/301 71/105/302 104/106/303 105/104/304
f 71/105/305 70/107/306 103/108/307 104/106/308
f 70/107/309 69/152/310 102/109/311 103/108/312
f 69/152/313 68/148/314 101/149/315 102/109/316
f 68/110/317 67/97/318 100/100/319 101/111/320
f 84/89/321 83/150/322 93/151/323 94/113/324
f 85/87/325 84/89/326 94/113/327 95/114/328
f 86/85/329 85/87/330 95/114/331 96/115/332
f 87/76/333 86/85/334 96/115/335 97/116/336
f 88/77/337 87/76/338 97/116/339 98/117/340
f 98/117/341 91/118/342 89/79/343 88/77/344
f 90/82/345 89/79/346 91/118/347 92/119/348
f 83/83/349 90/82/350 92/119/351 93/112/352
f 92/119/353 91/118/354 74/98/355 67/97/356
f 93/112/357 92/119/358 67/97/359 68/110/360
f 94/113/361 93/151/362 68/148/363 69/152/364
f 95/114/365 94/113/366 69/152/367 70/107/368
f 96/115/369 95/114/370 70/107/371 71/105/372
f 97/116/373 96/115/374 71/105/375 72/103/376
f 98/117/377 97/116/378 72/103/379 73/101/380
f 74/98/381 91/118/382 98/117/383 73/101/384
f 100/100/385 99/99/386 76/96/387 75/91/388
f 101/111/389 100/100/390 75/91/391 82/90/392
f 102/109/393 101/149/394 82/146/395 81/153/396
f 103/108/397 102/109/398 81/153/399 80/92/400
f 104/106/401 103/108/402 80/92/403 79/93/404
f 105/104/405 104/106/406 79/93/407 78/94/408
f 106/102/409 105/104/410 78/94/411 77/95/412
f 99/99/413 106/102/414 77/95/415 76/96/416
